<?xml version="1.0" encoding="UTF-8"?>
<svg id="a" data-name="Layer 1" xmlns="http://www.w3.org/2000/svg" viewBox="0 0 31.45 22.8">
  <path d="m19,22.35c-.3-.3-.45-.66-.45-1.08,0-.42.13-.76.4-1.03l7.35-7.35H1.5c-.43,0-.79-.14-1.07-.42-.28-.28-.43-.64-.43-1.07s.14-.79.43-1.08c.28-.28.64-.42,1.07-.42h24.8l-7.4-7.4c-.3-.3-.44-.65-.42-1.05.02-.4.17-.75.48-1.05.3-.27.66-.4,1.08-.4s.76.13,1.02.4l9.95,9.95c.17.17.28.33.35.5.07.17.1.35.1.55s-.03.38-.1.55c-.07.17-.18.33-.35.5l-9.9,9.9c-.3.3-.65.45-1.05.45s-.75-.15-1.05-.45Z"/>
</svg>