<?xml version="1.0" encoding="UTF-8"?>
<svg id="a" data-name="Layer 1" xmlns="http://www.w3.org/2000/svg" viewBox="0 0 284.75 37.69">
  <defs>
    <style>
      .b {
        fill: #e7224b;
      }
    </style>
  </defs>
  <path d="m0,37.4V.29c0-.16.13-.29.3-.29h20.63c.16,0,.3.13.3.29v7.88c0,.16-.13.29-.3.29h-11.42v6.42h11c.16,0,.3.13.3.29v7.88c0,.16-.13.29-.3.29h-11v14.07c0,.16-.13.29-.3.29H.3c-.16,0-.3-.13-.3-.29"/>
  <path d="m24.3,37.4V.29c0-.16.13-.29.3-.29h20.98c.16,0,.3.13.3.29v7.88c0,.16-.13.29-.3.29h-11.78v5.86h11.41c.16,0,.3.13.3.29v7.88c0,.16-.13.29-.3.29h-11.41v6.47h11.78c.16,0,.3.13.3.29v7.88c0,.16-.13.29-.3.29h-20.98c-.16,0-.3-.13-.3-.29"/>
  <path d="m63.14,29.23c5.65,0,9.17-3.46,9.17-10.34s-3.47-10.44-9.11-10.44h-4.45v20.78h4.4Zm-14.19,8.17V.29c0-.16.13-.29.29-.29h12.76c4.76,0,8.55.82,11.24,2.29,5.44,3.05,8.86,8.86,8.86,16.55,0,12.43-7.46,18.85-19.42,18.85h-13.43c-.16,0-.29-.13-.29-.29"/>
  <path d="m85.18,37.4V.29c0-.16.13-.29.3-.29h20.98c.16,0,.3.13.3.29v7.88c0,.16-.13.29-.3.29h-11.78v5.86h11.41c.16,0,.3.13.3.29v7.88c0,.16-.13.29-.3.29h-11.41v6.47h11.78c.16,0,.3.13.3.29v7.88c0,.16-.13.29-.3.29h-20.98c-.16,0-.3-.13-.3-.29"/>
  <path d="m122.87,18.95c3.9,0,6.29-1.78,6.29-5.4,0-3.26-2.49-5.09-6.18-5.09h-3.74v10.49h3.64Zm5.5,18.74c-.1,0-.18-.04-.24-.12l-8.8-12.05h-.1v11.89c0,.16-.13.29-.29.29h-8.82c-.16,0-.29-.13-.29-.29V.29c0-.16.13-.29.29-.29h12.28c4,0,7.07.51,9.09,1.38,4.16,1.83,7.07,6.26,7.07,11.61,0,5.96-3.64,10.85-9.56,11.87l10.06,12.37c.15.19.02.47-.23.47h-10.46Z"/>
  <path d="m157.69,11.77l-.15-.05-3.92,12.89h8l-3.92-12.83Zm8.3,25.73l-1.79-5.25h-13.27l-1.94,5.26c-.04.11-.15.19-.27.19h-9.85c-.21,0-.35-.21-.27-.39L153.7.18c.04-.11.15-.18.27-.18h7.3c.12,0,.23.07.27.18l14.95,37.11c.07.19-.07.39-.27.39h-9.95c-.12,0-.24-.08-.28-.2"/>
  <path d="m177.76,37.4V8.45h-7.33c-.16,0-.29-.13-.29-.29V.29c0-.16.13-.29.29-.29h24.47c.16,0,.29.13.29.29v7.88c0,.16-.13.29-.29.29h-7.28v28.95c0,.16-.13.29-.29.29h-9.28c-.16,0-.29-.13-.29-.29"/>
  <path d="m198.28,37.4V.29c0-.16.14-.29.31-.29h9.74c.17,0,.31.13.31.29v37.11c0,.16-.14.29-.31.29h-9.74c-.17,0-.31-.13-.31-.29"/>
  <path d="m276.17,37.56l-14.63-22.89.26,22.73c0,.16-.13.29-.29.29h-8.79c-.16,0-.29-.13-.29-.29V.29c0-.16.13-.29.29-.29h7.99c.1,0,.2.05.25.14l14.84,23.7-.41-23.54c0-.16.13-.29.29-.29h8.79c.16,0,.29.13.29.29v37.11c0,.16-.13.29-.29.29h-8.05c-.1,0-.19-.05-.25-.13"/>
  <path class="b" d="m230.53,37.69c10.39,0,18.81-8.44,18.81-18.84S240.91,0,230.53,0s-18.81,8.44-18.81,18.84,8.42,18.84,18.81,18.84"/>
</svg>